<?xml version="1.0" standalone="no"?>
<!DOCTYPE svg PUBLIC "-//W3C//DTD SVG 1.1//EN" "http://www.w3.org/Graphics/SVG/1.1/DTD/svg11.dtd" >
<svg xmlns="http://www.w3.org/2000/svg" xmlns:xlink="http://www.w3.org/1999/xlink" version="1.1">
<metadata></metadata>
<defs>
<font id="adventurenormal" horiz-adv-x="1024" >
<font-face units-per-em="2048" ascent="1638" descent="-410" />
<missing-glyph horiz-adv-x="973" />
<glyph horiz-adv-x="0" />
<glyph horiz-adv-x="0" />
<glyph horiz-adv-x="0" />
<glyph unicode="&#x9;" horiz-adv-x="0" />
<glyph unicode="&#xd;" horiz-adv-x="0" />
<glyph unicode=" "  horiz-adv-x="973" />
<glyph unicode="&#x09;" horiz-adv-x="973" />
<glyph unicode="&#xa0;" horiz-adv-x="973" />
<glyph unicode="!" horiz-adv-x="696" d="M16 16q40 161 84 303l322 41q-24 -79 -70 -264l-10 -2q-119 -22 -326 -78zM152 483q27 74 74 228.5t95 324.5t56 209l31 127q111 17 297 37q0 -53 -27 -170.5t-62.5 -241t-66.5 -215.5l-86 -272z" />
<glyph unicode="&#x22;" d="M0 852q8 32 24.5 117t33 162t36.5 139q193 121 289 121q22 0 39 -7q-24 -79 -70 -264l-24 -112q-50 0 -102 -22.5t-111 -60t-115 -73.5zM512 852q8 32 24.5 117t33 162t36.5 139q193 121 289 121q22 0 39 -7q-24 -79 -70 -264l-24 -112q-50 0 -102 -22.5t-111 -60 t-115 -73.5z" />
<glyph unicode="#" d="M180 430l84 203l45 2l31 117l-156 -7l80 195l127 4l31 113l188 16l-32 -121l79 4l31 113l189 16l-35 -122l102 4l-70 -195l-86 -4l-32 -117l188 8l-74 -202l-170 -6l-16 -62l-184 -16l18 71l-82 -4l-18 -63l-185 -17l21 72zM492 641l79 4l33 117l-80 -4z" />
<glyph unicode="$" horiz-adv-x="819" d="M135 399q103 17 178 39q134 36 174 49q12 56 27 168q-70 50 -98 80q-99 109 -99 213q0 27 7 53q24 111 180 173q41 16 90 30q4 38 4 41l16 127q56 17 148 37q0 -41 -10 -158q69 19 149 39l135 -207q-84 -10 -147 -26q-76 -20 -93 -24.5t-77 -20.5q-5 -39 -11.5 -83 t-9.5 -67.5t-8 -50.5q31 -18 47 -37q97 -106 105 -121q30 -51 30 -108q0 -19 -2 -37q-12 -82 -90 -139q-49 -39 -170 -95q-12 -86 -24 -178l-4 -2q-60 -22 -164 -78q9 59 26 197q-102 -35 -237 -68z" />
<glyph unicode="%" horiz-adv-x="1073" d="M-115 12q146 194 281.5 359.5t282.5 328.5q57 62 298 318.5t316 331.5l35 4q84 10 231 20q-49 -58 -95 -112t-128.5 -152t-171 -202t-168.5 -195q-28 -32 -110 -125t-186.5 -211.5t-159 -180.5t-89.5 -102zM78 1040q0 295 209 295q96 0 159 -65q0 -10 -6 -17.5t-10 -11.5 q21 -28 45.5 -58t40 -56.5t16.5 -49.5q0 -114 -63.5 -188t-165.5 -74q-115 0 -167.5 54.5t-57.5 170.5zM190 1065q0 -22 7 -57q6 -23 38.5 -39.5t71.5 -16.5q40 0 69.5 20t29.5 60q-3 35 -15 52t-30.5 31t-20.5 20l14 20q-31 25 -80 25q-41 -3 -62.5 -34.5t-21.5 -80.5z M692 324q0 154 53.5 224t155.5 70q95 0 160 -65q0 -9 -6.5 -17t-10.5 -12q32 -40 66 -85t37 -79q0 -114 -63.5 -188t-165.5 -74q-115 0 -168 55.5t-58 170.5zM805 348q0 -27 6 -57q6 -23 39 -39t72 -16q40 0 69 19.5t29 59.5q-1 25 -9 41.5t-21.5 29t-22 18.5t-13.5 14 l15 20q-31 25 -80 25q-84 -6 -84 -115z" />
<glyph unicode="&#x26;" horiz-adv-x="1288" d="M184 360q0 40 13 84.5t41 100.5q34 67 111 148.5t188 109.5q-46 54 -82.5 124t-36.5 138q0 56 28 98q65 102 154.5 170t214.5 68q51 -5 114.5 -52.5t110.5 -129.5t50 -187q0 -44 -72 -139t-203 -168l193 -319q21 26 37 64.5t16 70.5l188 -103q-29 -88 -58 -136t-81 -69 l111 -184l-217 -65l-84 145q-140 -55 -289 -55q-155 0 -271 51q-86 38 -131 97.5t-45 137.5zM385 401q0 -55 46.5 -92.5t121.5 -54.5q24 -6 80 -6q152 0 190 59l-205 338q-4 4 -6 4q-3 0 -16.5 -5l-13.5 -5q-38 -7 -81 -47.5t-76 -95.5t-40 -95zM618 1073l111 -188 q88 43 127 90t39 94q0 44 -32 79t-77 44q-20 4 -26 4q-46 0 -75 -30t-67 -93z" />
<glyph unicode="'" horiz-adv-x="512" d="M0 852q8 32 24.5 117t33 162t36.5 139q193 121 289 121q22 0 39 -7q-24 -79 -70 -264l-24 -112q-50 0 -102 -22.5t-111 -60t-115 -73.5z" />
<glyph unicode="(" horiz-adv-x="768" d="M84 596q0 55 4 115q27 276 199 473q168 190 372 190q48 3 69 3.5t49 1t112 3.5l-66 -258q-32 1 -65 2.5t-42.5 2t-27 1t-49.5 0.5q-59 0 -110 -43t-115 -120q-95 -109 -115 -289q-6 -35 -6 -68q0 -139 65 -233q66 -96 168 -96q76 6 213 10l-94 -277q-63 2 -110 2h-41 q-191 0 -301 160q-109 158 -109 420z" />
<glyph unicode=")" horiz-adv-x="819" d="M0 12l111 267q48 1 83.5 1.5t77.5 0.5q103 0 213 96q111 94 179 233q14 33 26 68q37 106 37 190q0 56 -16 99q-27 74 -58.5 118.5t-89.5 44.5q-30 0 -47.5 -0.5t-28 -1t-44 -2t-66.5 -2.5l55 258q82 -3 110 -3.5t50 -1t67 -3.5q205 0 283 -190q33 -84 33 -183 q0 -133 -60 -290q-24 -60 -51 -115q-123 -262 -307 -420q-186 -160 -377 -160q-44 0 -180 -4z" />
<glyph unicode="*" d="M86 504l178 143l-84 -4l80 195l96 4l-94 133l295 16l51 -71l101 79h270q-3 -7 -160 -139l121 4l-70 -194l-84 -4l103 -146l-291 -16l-74 102q-61 -54 -87 -76.5t-40 -33.5z" />
<glyph unicode="+" d="M174 592l80 194l182 7l47 161l295 17l-49 -166l205 8l-70 -195l-202 -8l-60 -147l-291 -17l60 154z" />
<glyph unicode="," horiz-adv-x="461" d="M0 -172q6 26 20.5 110t30.5 163.5t35 140.5q162 125 283 125q31 0 53 -7q-24 -79 -70 -264l-24 -112q-50 0 -102 -22.5t-111 -60t-115 -73.5z" />
<glyph unicode="-" d="M184 643l80 195l680 26l-70 -194z" />
<glyph unicode="." horiz-adv-x="461" d="M16 16q40 161 84 303l322 41q-24 -79 -70 -264l-20 -43q-106 0 -316 -37z" />
<glyph unicode="/" horiz-adv-x="1073" d="M-115 12q146 194 281.5 359.5t282.5 328.5q57 62 298 318.5t316 331.5l35 4q84 10 231 20q-49 -58 -95 -112t-128.5 -152t-171 -202t-168.5 -195q-28 -32 -110 -125t-186.5 -211.5t-159 -180.5t-89.5 -102z" />
<glyph unicode="0" horiz-adv-x="1094" d="M186 639q0 45 7 92q24 223 200 383q170 154 375 154q328 0 463 -224l-62 -40q31 -89 31 -148q0 -41 -14 -125q-43 -246 -182 -393q-158 -168 -404 -168q-192 0 -303 129t-111 340zM397 649q0 -112 68 -188q65 -76 168 -76q112 0 201 88q86 86 112 234q4 24 4 49 q0 82 -49 127l45 24q-57 119 -198 119q-136 0 -228 -88q-94 -88 -117 -231q-6 -29 -6 -58z" />
<glyph unicode="1" horiz-adv-x="731" d="M90 129q17 46 43.5 110t44 107t86.5 213q22 53 55.5 139.5t76 193.5t80.5 198.5t69 154.5l241 12l-272 -698l-154 -389z" />
<glyph unicode="2" horiz-adv-x="969" d="M0 170q33 87 66.5 155t60.5 101q113 156 220.5 243.5t200.5 127t195 65.5q42 12 62 41t20 66q0 63 -84 92q-12 4 -49 4q-56 0 -133.5 -9.5t-152.5 -31.5q11 29 37.5 91.5t39.5 97t13 53.5h135q127 -11 133 -13q65 -8 137 -39q150 -61 150 -210q0 -29 -7 -58 q-13 -73 -88 -143t-177.5 -121t-205.5 -76q-43 -15 -86.5 -47.5t-80.5 -71t-60 -71.5l430 20q-41 -104 -84 -223z" />
<glyph unicode="3" horiz-adv-x="969" d="M39 170q12 33 34 70.5t39 69t48 108.5q47 -4 131 -4q104 0 186 12t113 27q82 34 82 106q0 64 -84 92q-19 4 -99 4l58 172q127 3 196 35q82 35 82 107q0 63 -84 92q-13 4 -84.5 8t-128.5 4q0 27 -16 94t-16 99h135q127 -11 133 -13q65 -8 137 -39q150 -61 150 -210 q0 -29 -7 -58q-10 -57 -58.5 -117t-125.5 -108q14 -23 25.5 -61t11.5 -66q0 -29 -6 -57q-16 -83 -87.5 -161t-200.5 -130t-300 -58z" />
<glyph unicode="4" horiz-adv-x="1026" d="M162 582q43 110 104 249q24 55 86 134.5t123 160t92 146.5h221q-21 -56 -64 -124.5t-119 -178t-99 -146.5l250 33l32 -51q103 217 228 463l223 -2q-102 -213 -311 -709q-49 -121 -125 -336l-268 -33q88 234 143 369q16 37 33 78l-295 -33z" />
<glyph unicode="5" horiz-adv-x="969" d="M39 170q11 27 21 47.5t22.5 44.5t26.5 53t43 99q77 2 243 13.5t195 25.5q82 34 82 106q0 64 -84 92q-12 6 -25.5 12t-27.5 10.5t-39 6.5l-271 16l86 222q93 208 127 274l86 156h78q17 0 131 6q178 10 494 20l-82 -258h-103q-196 0 -317 -6q-57 -2 -131 -8l57 -31 q-14 -29 -67 -153q-5 -13 -7 -23t-8 -23q152 -35 238.5 -89t89.5 -189q0 -30 -6 -57q-16 -83 -87.5 -161t-200.5 -130t-300 -58z" />
<glyph unicode="6" horiz-adv-x="969" d="M147 455q0 67 24 149.5t70 180t117 219.5q48 80 131.5 127.5t200.5 82.5q21 8 43 13t35 6.5t28.5 3.5t37.5 4q35 -5 75 -14.5t80 -25t55 -34.5l-149 -180q0 16 -14 28.5t-33 19.5t-45 15.5t-47 14.5q-62 -3 -122 -27.5t-91 -58.5q-104 -114 -135 -209q24 12 69 26 t96 22.5t93 8.5q45 0 83 -8.5t74.5 -30t87.5 -67.5q14 -23 25.5 -61t11.5 -66q0 -29 -6 -57q-24 -133 -167.5 -236t-397.5 -113q-230 63 -230 267zM303 479q0 -20 10 -45q13 -28 38 -43t73 -22q135 0 217 37q41 16 84 66t43 85q0 31 -42 59.5t-87 34.5q-10 0 -20 2t-13 2 q-76 0 -100 -4q-109 -28 -166 -92q-37 -40 -37 -80z" />
<glyph unicode="7" horiz-adv-x="825" d="M0 170q11 29 127 236q29 51 91.5 125t148 160.5t183.5 182t175 170.5q-132 0 -213 -2t-141 -8l-162 -6l70 213l796 27q-16 -38 -31 -75.5t-30.5 -70t-40.5 -69.5q-52 -75 -120 -153.5t-218 -246t-237.5 -272.5t-139.5 -193z" />
<glyph unicode="8" horiz-adv-x="969" d="M-6 385q0 73 55 152q19 28 45 57q52 58 152 127q-31 43 -31 96q0 67 45 129q21 29 47 58q68 77 149.5 128.5t182.5 81.5q37 11 57.5 15.5t43 7t42.5 4.5q20 -2 34.5 -4t25.5 -3.5t28 -6.5t31 -13q150 -61 150 -210q0 -29 -7 -58q-10 -57 -58.5 -117t-125.5 -108 q14 -23 25.5 -61t11.5 -66q0 -29 -6 -57q-24 -133 -167.5 -236t-397.5 -113q-172 7 -252 60.5t-80 136.5zM252 492q0 -23 24 -39q19 -19 115 -33q24 -4 41 -4q72 0 158 37q82 34 82 106q0 35 -21 60.5t-63 31.5q-11 0 -20 2t-13 2q-76 0 -100 -4q-109 -28 -166 -92 q-37 -39 -37 -67zM465 901q0 -22 22 -39q24 -19 46.5 -26.5t80.5 -8.5q37 1 57 4.5t38 13t34 17.5q82 35 82 107q0 30 -35 55t-85 41q-63 -3 -116.5 -30.5t-88.5 -66t-35 -67.5z" />
<glyph unicode="9" horiz-adv-x="969" d="M178 942q0 29 6 57q16 84 82.5 161.5t189 129.5t294.5 58q141 -4 205.5 -81.5t64.5 -193.5q0 -76 -23.5 -151.5t-60.5 -126.5q-27 -52 -124.5 -188.5t-193 -260.5t-141.5 -178l-192 35q34 37 145 169.5t203 253.5t92 148q-58 -27 -130 -46t-134 -19q-45 0 -83 8t-75 30 t-88 68q-37 72 -37 127zM403 977q0 -33 21.5 -59.5t62.5 -32.5q11 0 21 -2t12 -2q76 0 101 4q115 29 174 94q28 31 28 70q0 20 -4 36q-16 30 -34.5 46.5t-63.5 23.5q-141 0 -236 -72q-49 -38 -65.5 -56.5t-16.5 -49.5z" />
<glyph unicode=":" horiz-adv-x="512" d="M16 16q40 161 84 303l322 41q-24 -79 -70 -264l-20 -43q-106 0 -316 -37zM147 565q40 161 84 303l322 41q-22 -71 -70 -264l-20 -43q-106 0 -316 -37z" />
<glyph unicode=";" horiz-adv-x="512" d="M0 -172q8 32 24.5 117t33 162t36.5 139q193 121 289 121q22 0 39 -7q-24 -79 -70 -264l-24 -112q-50 0 -102 -22.5t-111 -60t-115 -73.5zM147 565q40 161 84 303l322 41q-22 -71 -70 -264l-20 -43q-106 0 -316 -37z" />
<glyph unicode="&#x3c;" d="M176 594l80 194l45 13l643 166l-70 -195l-204 -51l274 -62l-70 -194l-653 141z" />
<glyph unicode="=" d="M184 438l80 195l680 26l-70 -194zM184 745l80 195l680 27l-70 -195z" />
<glyph unicode="&#x3e;" d="M184 438l80 195l211 55l-291 57l80 195l672 -133l-70 -195l-18 4l-2 -4z" />
<glyph unicode="?" horiz-adv-x="1288" d="M16 16q40 161 84 303l322 41q-24 -79 -70 -264l-10 -2q-119 -22 -326 -78zM152 483q23 63 34.5 96t22.5 64.5t26.5 68.5t34.5 79l373 36q99 12 139 19.5t82 25.5q97 41 97 132q0 71 -95 106q-28 10 -90 10h-22q-56 -2 -150 -28q-26 -7 -147.5 -31.5t-122.5 -24.5l-66 303 q228 35 394 35q47 0 86 -4q131 -10 151 -14q66 -10 154 -47q186 -78 186 -265q0 -32 -8 -69q-19 -102 -103 -186.5t-245 -135.5t-391 -51l-29 -92z" />
<glyph unicode="@" horiz-adv-x="1292" d="M104 596q0 55 7 115q32 276 247 473q211 190 465 190q128 0 218 -40.5t150 -107t130 -179.5q37 -107 37 -191q0 -64 -22 -153t-110 -169t-261 -79q-20 0 -105 -9.5t-123 -9.5q-94 0 -150.5 37t-56.5 131q0 27 11 88q25 119 97.5 188.5t160.5 69.5q51 -7 77.5 -14.5 t48 -37t21.5 -93.5q0 -56 -24 -158q79 0 104 24t25 68q0 16 7 61.5t7 69.5q0 37 -21 58q-71 147 -243 147q-170 0 -285 -108q-117 -109 -143 -289q-6 -35 -6 -68q0 -139 82 -233q81 -96 208 -96q83 0 125 11.5t90 59.5l244 -129q-195 -207 -500 -207q-237 0 -374 160 q-138 158 -138 420z" />
<glyph unicode="A" horiz-adv-x="1073" d="M-115 12q10 37 40 103t90.5 187l86.5 173q94 169 182.5 308.5t171 254.5t138 183.5t127.5 148.5q25 3 105 5t124 5q4 -74 6.5 -113t5.5 -110t3 -137q0 -233 -35 -434q-9 -28 -22.5 -107.5t-30.5 -183t-33 -170.5l-336 -82q35 115 133 408l-268 -13q-41 -66 -75.5 -141 t-76.5 -203zM463 647l180 4l41 -33q23 50 37 178t14 232q0 45 -2 62q-17 -24 -66.5 -103t-125 -206t-78.5 -134z" />
<glyph unicode="B" horiz-adv-x="1288" d="M16 16q41 156 148 494q76 209 168 410q24 53 67 135q-37 -11 -65 -19l-66 303q228 35 394 35q47 0 86 -4q131 -10 151 -14q66 -10 154 -47q186 -78 186 -265q0 -32 -8 -69q-17 -92 -77.5 -171t-149.5 -136q8 -15 17.5 -33.5t15.5 -30.5t12 -34t6 -38q0 -32 -8 -69 q-56 -295 -379 -371q-28 -4 -73.5 -9.5t-151.5 -17t-210 -22.5t-217 -27zM383 313l76 2q123 2 221 45q96 41 96 132q0 71 -94 106q-29 10 -90 10h-23t-19 2t-9 2q-11 0 -41 -10l-17 -55q-12 -23 -65 -139q-19 -50 -35 -95zM567 825l76 2q123 2 221 45q97 41 97 132 q0 71 -95 106q-28 10 -90 10h-22q-56 -2 -150 -28l64 -33q-13 -23 -66 -139q-18 -50 -35 -95z" />
<glyph unicode="C" horiz-adv-x="1292" d="M104 596q0 55 7 115q32 276 247 473q211 190 465 190q406 0 574 -276l-353 -170q-71 147 -243 147q-170 0 -285 -108q-117 -109 -143 -289q-6 -35 -6 -68q0 -139 82 -233q81 -96 208 -96q141 0 248 108l211 -166q-195 -207 -500 -207q-237 0 -374 160q-138 158 -138 420z " />
<glyph unicode="D" horiz-adv-x="1288" d="M16 33q10 36 23.5 77t40.5 115t53.5 150.5t46.5 140.5q27 74 49.5 139t48.5 136t54 129q24 51 82 161q-14 -3 -44 -23t-36 -22l-66 303q228 35 394 35q47 0 86 -4q131 -10 151 -14q66 -10 154 -47q186 -78 186 -265q0 -32 -8 -69q-13 -126 -62 -252t-148 -247t-257 -222 t-383 -172l-66 -21q-159 -21 -299 -28zM393 352q131 30 226.5 93t179.5 149q82 86 116.5 165.5t34.5 158.5q0 83 -11.5 130t-53.5 62q-72 25 -123 25q-129 -7 -193 -25l99 -51q-13 -23 -66 -139q-8 -24 -20 -56.5t-15 -38.5z" />
<glyph unicode="E" horiz-adv-x="985" d="M0 12v2q0 13 47 179q55 194 98 315q74 207 166 410q31 69 80 161q-94 -10 -176 -20l78 266q135 10 440 29q178 10 494 20l-82 -258h-103q-196 0 -317 -6q-57 -2 -131 -8l57 -31q-14 -29 -67 -153q-17 -41 -31 -76l381 14l-80 -231l-377 -13q-10 -30 -33 -102 q-22 -74 -57 -205q115 8 195 12q96 7 266 11l-84 -256q-80 2 -139 2h-52q-208 -2 -573 -62z" />
<glyph unicode="F" horiz-adv-x="985" d="M0 12v2q0 13 47 179q55 194 98 315q74 207 166 410q31 69 80 161q-94 -10 -176 -20l78 266q135 10 440 29q178 10 494 20l-82 -258h-103q-196 0 -317 -6q-57 -2 -131 -8l57 -31q-14 -29 -67 -153q-17 -41 -31 -76l381 14l-80 -231l-377 -13q-19 -63 -33 -102 q-22 -64 -61 -216t-51 -235q-146 -16 -332 -47z" />
<glyph unicode="G" horiz-adv-x="1292" d="M104 596q0 55 7 115q32 276 247 473q211 190 465 190q406 0 574 -276l-353 -170q-71 147 -243 147q-170 0 -285 -108q-117 -109 -143 -289q-6 -35 -6 -68q0 -139 82 -233q81 -96 208 -96q66 0 142.5 38.5t134.5 96.5q-103 16 -205 24l143 193q76 -3 154 -14.5t142 -26 t120 -28.5t166 -42l-104 -207q-84 31 -174 52q-27 -99 -120.5 -179t-215 -126t-224.5 -46q-237 0 -374 160q-138 158 -138 420z" />
<glyph unicode="H" horiz-adv-x="1073" d="M-115 12q35 129 133 439q74 208 166 409q86 187 256 490l35 4q84 10 232 20q-84 -153 -250 -514q-15 -37 -29 -72l307 39l31 -61q18 41 43 94q84 187 254 490l35 4q84 10 231 20q-84 -153 -250 -514q-61 -153 -139 -409q-35 -115 -96 -326l-336 -82q35 115 133 408 q25 65 43 114l-344 -39l-23 -75q-38 -129 -96 -357z" />
<glyph unicode="I" horiz-adv-x="940" d="M-4 -16l78 266q43 4 89 8t101 8l30 100t44 142q76 207 168 410q35 75 90 184q-69 -6 -148.5 -20.5t-144.5 -22.5l78 266q33 2 136 12t214 17q36 2 85.5 5.5t90 6t94.5 4.5t117 4l-82 -258q-170 0 -270 -4l78 -41q-15 -29 -68 -153q-61 -156 -139 -410q-29 -92 -62 -219 q37 2 97.5 4.5t138.5 5.5l-82 -258q-170 0 -270 -4q-141 -12 -463 -53z" />
<glyph unicode="J" horiz-adv-x="1104" d="M-236 160l291 67q0 -51 30.5 -92t86.5 -41q98 10 158 86q61 76 121 238q27 72 63 160t73 174.5t72 165.5q35 75 91 184q-69 -6 -148.5 -20.5t-144.5 -22.5l78 266q33 2 136 12t214 17q36 2 85.5 5.5t90 6t94.5 5t117 3.5l-82 -258q-170 0 -270 -4l77 -41 q-14 -29 -67 -153q-112 -287 -176 -500q-125 -355 -287 -492q-135 -114 -354 -114q-135 0 -219 69q-68 57 -94 114.5t-36 164.5z" />
<glyph unicode="K" horiz-adv-x="1073" d="M-115 12q35 129 133 439q74 208 166 409q86 187 256 490l35 4q84 10 232 20q-84 -153 -250 -514q-15 -37 -29 -72q123 52 246.5 144.5t226 202.5t162.5 215l35 4q84 10 231 20q-53 -121 -166.5 -269t-269.5 -277t-332 -193q53 -27 107 -76.5t97 -114t66 -127.5t23 -122 q0 -33 -10 -70l-336 -82q12 58 12 117q0 128 -51 232t-129 134l-23 -75q-38 -129 -96 -357z" />
<glyph unicode="L" horiz-adv-x="985" d="M0 12v2q0 13 47 179q55 194 98 315q74 207 166 410q12 28 54.5 127.5t78.5 182t52 111.5q45 4 55.5 5t124.5 8l82 12q-12 -23 -56.5 -136.5t-76 -194t-47.5 -120.5q-5 -13 -11 -33.5t-14 -37.5q-6 -18 -47.5 -151.5t-72.5 -232t-46 -153.5q115 8 195 12q96 7 266 11 l-84 -256q-80 2 -139 2h-52q-208 -2 -573 -62z" />
<glyph unicode="M" horiz-adv-x="1638" d="M-115 12q35 129 133 439q74 208 166 409q52 113 135 268q5 15 5 25q0 29 -24.5 96.5t-29.5 89.5l324 74q11 -38 45 -154.5t57.5 -207t45 -203t24.5 -201.5q85 176 204.5 340.5t239.5 282t215 168.5q15 1 116 21.5t148.5 29t84.5 10.5l-156 -647q-5 -22 -46 -197.5 t-60 -258t-39 -176t-23 -126.5l-406 -110q35 129 134 438q14 37 34 106t55.5 188.5t50.5 164t38 94.5q-61 -21 -160 -153t-184 -277q-40 -66 -87 -185.5t-81 -234.5l-336 -82q4 20 4 57q0 85 -14.5 233.5t-33 272t-30.5 123.5l-117 -278q-26 -60 -58.5 -182t-37.5 -175z" />
<glyph unicode="N" horiz-adv-x="1073" d="M-115 12q35 129 133 439q74 208 166 409q52 113 135 268q5 15 5 25q0 29 -24.5 96.5t-29.5 89.5l324 74q97 -384 139 -721q7 0 41 83t35 85q84 187 254 490l35 4q84 10 231 20q-84 -153 -250 -514q-61 -153 -139 -409q-35 -115 -96 -326l-336 -82q4 20 4 57 q0 85 -14.5 233.5t-33 272t-30.5 123.5l-117 -278q-26 -60 -58.5 -182t-37.5 -175z" />
<glyph unicode="O" horiz-adv-x="1292" d="M104 596q0 55 7 115q32 276 247 473q211 190 465 190q406 0 574 -276l-76 -51q37 -107 37 -183q0 -51 -17 -153q-53 -303 -225 -488q-194 -207 -500 -207q-237 0 -374 160q-138 158 -138 420zM367 610q0 -139 82 -233q81 -96 208 -96q140 0 248 108q107 109 139 289 q7 33 7 61q0 103 -62 158l55 31q-71 147 -243 147q-170 0 -285 -108q-117 -109 -143 -289q-6 -35 -6 -68z" />
<glyph unicode="P" horiz-adv-x="1288" d="M16 16q41 156 148 494q76 209 168 410q24 53 67 135q-37 -11 -65 -19l-66 303q228 35 394 35q47 0 86 -4q131 -10 151 -14q66 -10 154 -47q186 -78 186 -265q0 -32 -8 -69q-19 -102 -103 -186.5t-245 -135.5t-391 -51l-29 -92q-45 -152 -111 -414l-10 -2 q-119 -22 -326 -78zM567 825l76 2q123 2 221 45q97 41 97 132q0 71 -95 106q-28 10 -90 10h-22q-56 -2 -150 -28l64 -33q-13 -23 -66 -139q-18 -50 -35 -95z" />
<glyph unicode="Q" horiz-adv-x="1292" d="M104 596q0 55 7 115q32 276 247 473q211 190 465 190q406 0 574 -276l-76 -51q37 -107 37 -183q0 -51 -17 -153q-51 -289 -208 -469q109 -152 165 -246l-305 -111q-39 80 -88 160q-6 10 -12 23q-125 -52 -277 -52q-237 0 -374 160q-138 158 -138 420zM367 610 q0 -139 82 -233q81 -96 208 -96q43 0 82 10q-47 61 -98 121l-96 102l360 2q27 -28 53 -61q62 92 86 223q7 33 7 61q0 103 -62 158l55 31q-71 147 -243 147q-170 0 -285 -108q-117 -109 -143 -289q-6 -35 -6 -68z" />
<glyph unicode="R" horiz-adv-x="1288" d="M16 16q41 156 148 494q76 209 168 410q24 53 67 135q-37 -11 -65 -19l-66 303q228 35 394 35q47 0 86 -4q131 -10 151 -14q66 -10 154 -47q186 -78 186 -265q0 -32 -8 -69q-55 -295 -379 -371q207 -225 344 -454l-305 -111q-39 80 -88 160q-117 194 -264 366l-47 37 l-29 -92q-45 -152 -111 -414l-10 -2q-119 -22 -326 -78zM567 825l76 2q123 2 221 45q97 41 97 132q0 71 -95 106q-28 10 -90 10h-22q-56 -2 -150 -28l64 -33q-13 -23 -66 -139q-18 -50 -35 -95z" />
<glyph unicode="S" horiz-adv-x="696" d="M0 293q102 14 174 39q178 59 184 168v12q0 53 -34 119l-66 102q-82 137 -82 228q0 28 4 61q23 162 150 235q114 68 356 129l117 -276q-68 -2 -125 -14q-133 -31 -186 -107q-19 -26 -19 -55q0 -45 51 -121q70 -98 78 -121q62 -139 62 -225v-21q-19 -202 -230 -342 q-115 -77 -371 -141z" />
<glyph unicode="T" horiz-adv-x="940" d="M190 12q41 158 148 496q76 207 168 410q35 75 90 184q-168 -15 -383 -43l78 266q135 10 440 29q180 10 494 20l-82 -258h-107q-155 0 -270 -4l78 -41q-15 -29 -68 -153q-61 -156 -139 -410q-47 -156 -111 -414l-10 -2q-119 -24 -326 -80z" />
<glyph unicode="U" horiz-adv-x="1083" d="M47 426q0 90 27 197q84 329 264 716l291 35q-117 -278 -125 -303q-103 -258 -150 -448q-16 -70 -16 -129q0 -195 141 -195q90 0 158 86q61 76 121 238l280 751h271q-37 -90 -119 -354q-96 -305 -129 -397q-125 -355 -287 -492q-135 -115 -354 -115q-111 0 -217 78 q-156 111 -156 332z" />
<glyph unicode="V" horiz-adv-x="1073" d="M238 53q6 15 12.5 143t12 312.5t8.5 374t3 319.5q0 113 -4 137l324 74q6 -18 6 -80q0 -204 -59 -776q99 182 269.5 446.5t252.5 346.5l35 4q84 10 231 20q-49 -59 -126 -191.5t-218 -384t-242 -418.5t-170 -245z" />
<glyph unicode="W" horiz-adv-x="1690" d="M238 53q6 15 12.5 143t12 312.5t8.5 374t3 319.5q0 113 -4 137l324 74q6 -18 6 -80q0 -204 -59 -776q31 57 93.5 162.5t132.5 216t120 182.5q0 205 -2 221l323 74q6 -18 6 -80q0 -110 -20.5 -360t-38.5 -416q78 141 175.5 298t193 296t153.5 199l35 4q84 10 232 20 q-44 -51 -111.5 -166t-220.5 -388t-254 -440t-170 -245l-336 -82q5 14 9.5 89.5t9.5 216t8 259.5q-56 -102 -106.5 -188.5t-102 -164.5t-97.5 -130z" />
<glyph unicode="X" horiz-adv-x="1073" d="M-115 12q146 194 281.5 359.5t282.5 328.5q-7 29 -15 29q0 43 -33 166.5t-80.5 276.5t-50.5 167l324 74q18 -43 55 -175.5t62 -250.5q139 150 352 363l35 4q84 10 231 20q-59 -71 -146.5 -171.5t-143 -164.5t-123.5 -142.5t-148 -170.5q31 -158 53 -325t23 -275l-336 -82 q4 20 4 55q0 112 -20 305q-104 -120 -137 -157.5t-70.5 -80t-63.5 -71.5z" />
<glyph unicode="Y" horiz-adv-x="940" d="M190 12q12 45 31.5 107.5t74 230.5t93.5 289q-14 47 -48.5 233t-59 297.5t-52.5 165.5h275q9 -30 18.5 -82.5t17.5 -103t21 -141t21 -136.5q57 89 95.5 152.5t78.5 128t76 113t65 73.5l295 41q-57 -53 -162 -200t-198.5 -289t-163.5 -252q-36 -120 -142 -545l-10 -2 q-119 -24 -326 -80z" />
<glyph unicode="Z" horiz-adv-x="985" d="M0 12q13 42 46 152t40 135q14 46 55.5 106t79.5 104.5t112 124t93 99.5q39 42 191 184.5t206 204.5q-17 -1 -210 -21t-222 -22q-94 -10 -176 -20l78 266q135 10 440 29q178 10 494 20l-82 -258q-53 -77 -142.5 -176.5t-205 -215.5t-225 -225.5t-185.5 -193.5 q115 8 195 12q96 7 266 11l-84 -256q-80 2 -139 2h-52q-208 -2 -573 -62z" />
<glyph unicode="[" horiz-adv-x="985" d="M0 12v2q0 13 47 179q55 194 98 315q74 207 166 410q31 69 80 161l78 267q45 3 85 3.5t179 4.5q178 10 494 20l-82 -258h-103q-196 0 -317 -6q-57 -2 -131 -8l57 -31q-7 -14 -47 -122t-74.5 -201.5t-52.5 -135.5q-10 -30 -33 -102q-22 -74 -57 -205q115 8 195 12 q96 7 266 11l-84 -256q-80 2 -139 2h-52q-208 -2 -573 -62z" />
<glyph unicode="\" horiz-adv-x="1073" d="M193 1339l327 86q2 -4 37 -76t67 -144.5t68 -171.5t62 -206q21 -84 55.5 -213.5t48.5 -181t38.5 -156t29.5 -151.5l-336 -82q-15 131 -55 319t-84 367q-18 68 -64 188.5t-101.5 243t-92.5 178.5z" />
<glyph unicode="]" horiz-adv-x="985" d="M0 12q12 31 37.5 104t44.5 142l430 41l135 -45l-53 45q5 13 51.5 144t99 276.5t90 243.5t54.5 135l-498 -19l78 267q45 3 85 3.5t179 4.5q178 10 494 20l-82 -258q-19 -49 -129 -313q0 -1 -43.5 -127.5t-51 -151.5t-22.5 -58.5t-28 -66t-23 -71.5l-84 -256q-80 2 -139 2 h-52q-208 -2 -573 -62z" />
<glyph unicode="^" horiz-adv-x="1075" d="M4 920q9 33 47 95.5t60 135.5l516 197l520 -226q-10 -31 -33 -76t-36 -71.5t-25 -75.5l-467 225z" />
<glyph unicode="_" horiz-adv-x="985" d="M0 12q17 42 47 121t55 166q34 3 238 10t242 8q112 9 454 15l-84 -256q-331 0 -379 -2q-208 -2 -573 -62z" />
<glyph unicode="`" horiz-adv-x="512" d="M25 954q8 32 24.5 117t33 162t36.5 139q21 12 45 12q47 0 131 -60t115 -71q-17 -56 -48 -185t-47 -191q-33 0 -74 24t-82.5 48t-74.5 24q-30 0 -59 -19z" />
<glyph unicode="a" horiz-adv-x="1026" d="M0 170q13 32 40 90.5t61.5 131t83.5 171t81 162.5q66 130 215 297t252 248l223 -2q5 -39 5 -152q-6 -350 -52 -555q-22 -103 -106 -340l-268 -33q31 81 69 204t55 165l-237 -8l-152 -338zM508 750l168 12l29 -37l45 324z" />
<glyph unicode="b" horiz-adv-x="969" d="M39 170q43 119 149 387q33 79 63.5 152t70 161t79.5 170q19 48 54.5 128t40.5 98h135q127 -11 133 -13q65 -8 137 -39q150 -61 150 -210q0 -29 -7 -58q-10 -57 -58.5 -117t-125.5 -108q14 -23 25.5 -61t11.5 -66q0 -29 -6 -57q-16 -83 -87.5 -161t-200.5 -130t-300 -58z M393 418q131 4 197 35q82 34 82 106q0 64 -84 92q-19 6 -56 6q-18 0 -43 -2zM547 827q131 4 196 35q82 35 82 107q0 63 -84 92q-18 6 -55 6q-18 0 -43 -2z" />
<glyph unicode="c" horiz-adv-x="1094" d="M186 639q0 45 7 92q24 223 200 383q170 154 375 154q328 0 463 -224l-285 -137q-57 119 -198 119q-136 0 -228 -88q-94 -88 -117 -231q-6 -29 -6 -58q0 -112 68 -188q65 -76 168 -76q112 0 201 88l170 -135q-156 -168 -404 -168q-192 0 -303 129t-111 340z" />
<glyph unicode="d" horiz-adv-x="969" d="M39 170q43 119 149 387q7 17 92 211.5t128.5 292.5t95.5 205q16 4 53 4q10 -1 26.5 -1.5t30 -1.5t17.5 -1q127 -11 133 -13q65 -8 137 -39q150 -61 150 -210q0 -29 -7 -58q-22 -125 -87 -274t-223 -286t-425 -175zM377 397q121 44 209.5 128.5t139.5 175.5t75 167t24 101 q0 63 -84 92q-18 6 -55 6q-18 0 -43 -2l-96 -238z" />
<glyph unicode="e" horiz-adv-x="825" d="M0 170q43 121 150 389q75 182 221 475l-162 -6l70 213l796 27q-43 -94 -94 -211l-385 -15l-78 -196l307 10l-69 -194l-318 -11l-39 -92l-53 -143l430 20q-41 -104 -84 -223z" />
<glyph unicode="f" horiz-adv-x="825" d="M0 170q43 121 150 389q75 182 221 475l-162 -6l70 213l796 27q-43 -94 -94 -211l-385 -15l-78 -196l307 10l-69 -194l-318 -11l-39 -92l-53 -143q-40 -105 -88 -219z" />
<glyph unicode="g" horiz-adv-x="1094" d="M186 639q0 45 7 92q24 223 200 383q170 154 375 154q328 0 463 -224l-285 -137q-57 119 -198 119q-136 0 -228 -88q-94 -88 -117 -231q-6 -29 -6 -58q0 -112 68 -188q65 -76 168 -76q29 0 66 17t68 44t40 50q-18 3 -47.5 5.5t-52 13t-43.5 34.5l139 147q36 -39 83 -50 t126 -14t121.5 -14.5t66.5 -52.5l-102 -147q-16 24 -94 24q-32 -71 -105 -134t-155.5 -100.5t-143.5 -37.5q-192 0 -303 129t-111 340z" />
<glyph unicode="h" horiz-adv-x="1026" d="M0 170q45 119 150 387q106 260 315 711h221v-2l-180 -443l250 33l32 -51q103 217 228 463l223 -2q-102 -213 -311 -709q-49 -121 -125 -336l-268 -33q88 234 143 369q16 37 33 78l-295 -33l-17 -45l-129 -346z" />
<glyph unicode="i" horiz-adv-x="731" d="M90 129q17 46 43.5 110t44 107t86.5 213q22 53 55.5 139.5t76 193.5t80.5 198.5t69 154.5l241 12l-272 -698l-154 -389z" />
<glyph unicode="j" horiz-adv-x="946" d="M115 459l247 35q0 -95 101 -95q76 0 131 60q53 59 119 203l270 606h219q-90 -215 -246 -606q-104 -291 -245 -402q-113 -90 -295 -90q-88 0 -174 55q-127 77 -127 234z" />
<glyph unicode="k" horiz-adv-x="1026" d="M0 170q45 119 150 387q106 260 315 711h221v-2l-180 -443q162 83 257.5 152t150.5 135.5t102 157.5l223 -2q-30 -61 -80.5 -134t-121 -151.5t-162.5 -151.5t-191 -124q26 -35 58.5 -106t53.5 -147.5t21 -142.5q0 -50 -14 -88l-268 -33q18 49 18 103q0 59 -20 120.5 t-52.5 111.5t-64.5 79l-17 -45l-129 -346z" />
<glyph unicode="l" horiz-adv-x="825" d="M0 170q43 121 150 389q75 182 221 475l100 211l225 12l-178 -411l-119 -287l-53 -143l430 20q-41 -104 -84 -223z" />
<glyph unicode="m" horiz-adv-x="1260" d="M0 170q45 119 150 387q9 22 34 85t44 107t40 91t92 204l-49 177l242 57l16 -37q40 -64 82.5 -183t72.5 -233.5t30 -152.5q26 56 81 129t127.5 151t154 152t149.5 125l254 82l-82 -258q-22 -68 -49 -206.5t-47.5 -308t-26.5 -317.5l-268 -33q0 287 63 594 q-74 -71 -143.5 -178t-89.5 -190l-74 -193l-268 -33q10 56 10 144q0 119 -23 243.5t-51 178.5l-72 -197l-129 -346z" />
<glyph unicode="n" horiz-adv-x="1026" d="M0 170q45 119 150 387q9 22 34 85t44 107t40 91t92 204l-49 177l242 57l16 -37q29 -44 60.5 -126t54.5 -160.5t40 -155t17 -107.5q201 431 275 576l223 -2q-102 -213 -311 -709q-49 -121 -125 -336l-268 -33q10 56 10 144q0 119 -23 243.5t-51 178.5l-72 -197l-129 -346z " />
<glyph unicode="o" horiz-adv-x="1094" d="M186 639q0 45 7 92q24 223 200 383q170 154 375 154q328 0 463 -224l-62 -40q31 -89 31 -148q0 -41 -14 -125q-43 -246 -182 -393q-158 -168 -404 -168q-192 0 -303 129t-111 340zM397 649q0 -112 68 -188q65 -76 168 -76q112 0 201 88q86 86 112 234q4 24 4 49 q0 82 -49 127l45 24q-57 119 -198 119q-136 0 -228 -88q-94 -88 -117 -231q-6 -29 -6 -58z" />
<glyph unicode="p" horiz-adv-x="969" d="M39 170q43 119 149 387q22 53 57 135t83 194t96 218.5t76 165.5q89 0 131 -4q127 -11 133 -13q65 -8 137 -39q150 -61 150 -210q0 -29 -7 -58q-14 -81 -83 -153.5t-195 -120.5t-305 -58l-23 -57l-129 -346zM547 827q131 4 196 35q82 35 82 107q0 63 -84 92q-18 6 -55 6 q-18 0 -43 -2z" />
<glyph unicode="q" horiz-adv-x="1094" d="M186 639q0 45 7 92q24 223 200 383q170 154 375 154q328 0 463 -224l-62 -40q31 -89 31 -148q0 -41 -14 -125q-43 -246 -182 -393q-15 -16 -31 -31q74 -98 123 -182l-246 -90q-33 65 -72 129q-12 20 -16 29q-76 -23 -162 -23q-192 0 -303 129t-111 340zM397 649 q0 -112 68 -188q63 -72 160 -76q-67 88 -111 137l254 31q12 -11 32 -33t38 -43q82 86 108 230q4 24 4 49q0 82 -49 127l45 24q-57 119 -198 119q-136 0 -228 -88q-94 -88 -117 -231q-6 -29 -6 -58z" />
<glyph unicode="r" horiz-adv-x="969" d="M39 170q43 119 149 387q22 52 37.5 86t50.5 109t60 128t70 144q11 29 37.5 91.5t39.5 97t13 53.5h135q127 -11 133 -13q65 -8 137 -39q150 -61 150 -210q0 -29 -7 -58q-43 -233 -329 -301q168 -182 278 -366l-245 -91q-33 66 -72 129q-96 158 -215 297l-23 -57l-129 -346 zM547 827q131 4 196 35q82 35 82 107q0 63 -84 92q-18 6 -55 6q-18 0 -43 -2z" />
<glyph unicode="s" horiz-adv-x="532" d="M90 399q68 17 119 39q121 49 127 111v16q0 68 -60 170q-65 109 -65 213q0 27 4 53q16 111 121 173q92 53 264 116l90 -207q-55 -10 -98 -26q-105 -39 -129 -92q-14 -31 -14 -64q0 -55 43 -127q63 -106 69 -121q21 -51 21 -108q0 -19 -2 -37q-9 -82 -60 -139 q-35 -41 -121 -99q-92 -61 -262 -125z" />
<glyph unicode="t" horiz-adv-x="834" d="M115 170q43 121 149 389q78 182 223 479l-276 -10l70 213l796 27q-43 -92 -96 -211l-270 -10l-197 -488l-129 -348z" />
<glyph unicode="u" horiz-adv-x="946" d="M115 459q0 90 45 203q59 147 258 577l235 29q-157 -375 -247 -606q-44 -107 -44 -168q0 -95 101 -95q76 0 131 60q53 59 119 203l270 606h219q-90 -215 -246 -606q-104 -291 -245 -402q-113 -90 -295 -90q-88 0 -174 55q-127 78 -127 234z" />
<glyph unicode="v" horiz-adv-x="1026" d="M201 166q14 16 35 47q11 97 18.5 211.5t15.5 266t19.5 288t32.5 289.5h221q0 -45 1.5 -103.5t2.5 -110.5t1.5 -88t0.5 -108q0 -114 -8 -199q402 476 487 605l223 -2q-51 -106 -138 -235t-194 -268.5t-178.5 -226t-236.5 -286.5q-12 -14 -17.5 -20.5t-15.5 -18.5z" />
<glyph unicode="w" horiz-adv-x="1485" d="M201 166q14 16 35 47q23 214 40.5 369t41.5 349t44 337h222q-3 -123 -12 -243t-31 -366q44 71 95.5 155.5t120.5 199.5t101.5 168.5t54.5 85.5h13h221q-3 -123 -12 -243t-31 -366q61 99 118 193.5t112.5 185.5t88 144.5t54.5 85.5l223 -2q-56 -99 -150 -265.5 t-165 -287.5t-155.5 -246.5t-162.5 -220.5q-12 -14 -17.5 -20.5t-15.5 -18.5l-270 -41q14 16 35 47q18 162 38 340.5t27 230.5q-101 -171 -185.5 -300t-174.5 -238q-12 -14 -17.5 -20.5t-15.5 -18.5z" />
<glyph unicode="x" horiz-adv-x="1026" d="M0 170q109 145 259 321t300 336q-11 138 -34 254.5t-60 186.5h221q40 -97 76 -232q154 158 254 232l223 -2q-41 -45 -100.5 -110t-98 -105t-109 -116t-128.5 -138q18 -140 18 -303q0 -165 -18 -273l-268 -33q15 71 22.5 156t9.5 199q-221 -242 -297 -332z" />
<glyph unicode="y" horiz-adv-x="834" d="M115 170q6 18 33.5 86.5t67 161.5t83.5 200l-18 623l223 8l-4 -368q57 99 159.5 209t176.5 159l241 19q-93 -76 -206.5 -204t-206 -253.5t-132.5 -200.5l-147 -399z" />
<glyph unicode="z" horiz-adv-x="825" d="M0 170q11 29 127 236q29 51 91.5 125t148 160.5t183.5 182t175 170.5q-132 0 -213 -2t-141 -8l-162 -6l70 213l796 27q-16 -38 -31 -75.5t-30.5 -70t-40.5 -69.5q-58 -83 -134 -167.5t-121.5 -128.5t-172.5 -166t-172 -169l403 14q-41 -104 -84 -223z" />
<glyph unicode="{" horiz-adv-x="768" d="M84 596q0 55 4 115q27 276 199 473q168 190 372 190q48 3 69 3.5t49 1t112 3.5l-66 -258q-32 1 -65 2.5t-42.5 2t-27 1t-49.5 0.5q-59 0 -110 -43t-115 -120q-95 -109 -115 -289q-6 -35 -6 -68q0 -139 65 -233q66 -96 168 -96q76 6 213 10l-94 -277q-63 2 -110 2h-41 q-191 0 -301 160q-109 158 -109 420z" />
<glyph unicode="|" horiz-adv-x="696" d="M16 16q40 161 84 303q38 101 153 487t124 439l31 127q111 17 297 37q0 -53 -27 -170.5t-62.5 -241t-66.5 -215.5l-127 -422q-24 -79 -70 -264l-10 -2q-119 -22 -326 -78z" />
<glyph unicode="}" horiz-adv-x="819" d="M0 12l111 267q48 1 83.5 1.5t77.5 0.5q103 0 213 96q111 94 179 233q14 33 26 68q37 106 37 190q0 56 -16 99q-27 74 -58.5 118.5t-89.5 44.5q-30 0 -47.5 -0.5t-28 -1t-44 -2t-66.5 -2.5l55 258q82 -3 110 -3.5t50 -1t67 -3.5q205 0 283 -190q33 -84 33 -183 q0 -133 -60 -290q-24 -60 -51 -115q-123 -262 -307 -420q-186 -160 -377 -160q-44 0 -180 -4z" />
<glyph unicode="~" horiz-adv-x="1075" d="M25 954q8 32 24.5 117t33 162t36.5 139q64 10 153 10q85 0 170.5 -9.5t196 -25.5t182 -24t146.5 -8q120 0 213 24q-17 -56 -48 -185t-47 -191q-80 -23 -184 -23q-58 0 -129.5 7.5t-162.5 20.5t-177 22t-147 9q-152 0 -260 -45z" />
<glyph unicode="&#xad;" d="M184 643l80 195l680 26l-70 -194z" />
<glyph unicode="&#x2000;" horiz-adv-x="749" />
<glyph unicode="&#x2001;" horiz-adv-x="1499" />
<glyph unicode="&#x2002;" horiz-adv-x="749" />
<glyph unicode="&#x2003;" horiz-adv-x="1499" />
<glyph unicode="&#x2004;" horiz-adv-x="499" />
<glyph unicode="&#x2005;" horiz-adv-x="374" />
<glyph unicode="&#x2006;" horiz-adv-x="249" />
<glyph unicode="&#x2007;" horiz-adv-x="249" />
<glyph unicode="&#x2008;" horiz-adv-x="187" />
<glyph unicode="&#x2009;" horiz-adv-x="299" />
<glyph unicode="&#x200a;" horiz-adv-x="83" />
<glyph unicode="&#x2010;" d="M184 643l80 195l680 26l-70 -194z" />
<glyph unicode="&#x2011;" d="M184 643l80 195l680 26l-70 -194z" />
<glyph unicode="&#x2012;" d="M184 643l80 195l680 26l-70 -194z" />
<glyph unicode="&#x2013;" horiz-adv-x="1288" d="M184 643l108 195l916 26l-94 -194z" />
<glyph unicode="&#x2014;" horiz-adv-x="2312" d="M184 643l216 195l1832 26l-189 -194z" />
<glyph unicode="&#x202f;" horiz-adv-x="299" />
<glyph unicode="&#x205f;" horiz-adv-x="374" />
</font>
</defs>
</svg>
